<svg xmlns="http://www.w3.org/2000/svg" class="PaymentLogo variant-- " width="84" height="48" viewBox="0 0 42 24" fill="none"><path d="M15.6493 6.10547H9.07312V17.9238h6.57618V6.10547Z" fill="#FF5F00" /><path d="M9.49062 12.0177C9.4888 9.71182 10.5473 7.53319 12.3612 6.10952c-3.08148-2.4217-7.50658-2.06896-10.16549.81033-2.658897 2.87928-2.658897 7.31845 0 10.19775 2.65891 2.8793 7.08401 3.232 10.16549.8103-1.8145-1.4241-2.87304-3.6037-2.87058-5.9102Z" fill="#EB001B" /><path d="M24.522 12.0176c0 2.8776-1.6432 5.5025-4.2314 6.7599-2.5882 1.2575-5.6673.9268-7.9294-.8517 1.8131-1.4249 2.8717-3.6032 2.8717-5.9092 0-2.30598-1.0586-4.48432-2.8717-5.9092 2.2624-1.7787 5.3419-2.10928 7.9303-.85129 2.5884 1.25798 4.2312 3.88361 4.2305 6.76149Z" fill="#F79E1B" /></svg>