<svg xmlns="http://www.w3.org/2000/svg" width="24" height="24"><title>Maestro</title><g fill="none" fill-rule="evenodd"><path fill="var(--paymentLogoColor, #7673C0)" fill-rule="nonzero" d="M8.829 5.602h6.546v11.765H8.829z"></path><path fill="var(--paymentLogoColor, #EB001B)" fill-rule="nonzero" d="M9.247 11.484a7.47 7.47 0 0 1 2.858-5.882 7.482 7.482 0 1 0 0 11.765 7.47 7.47 0 0 1-2.858-5.883z"></path> <path fill="var(--paymentLogoColor, #00A1DF)" fill-rule="nonzero" d="M23.583 16.822V16h.156v-.17h-.393V16h.155v.823h.082zm.763 0v-.993h-.119l-.139.71-.138-.71h-.122v.993h.086v-.745l.128.646h.09l.128-.646v.752l.086-.007zm-.138-5.338a7.482 7.482 0 0 1-12.105 5.881 7.482 7.482 0 0 0 0-11.765 7.482 7.482 0 0 1 12.105 5.884z"></path></g></svg>